/* XPM */
static char *_c43b43ed3554005b7b2f644a067cae4yZOic9opzLrmGeE2[] = {
/* columns rows colors chars-per-pixel */
"32 32 231 2 ",
"   c #131118",
".  c #2A1514",
"X  c #282918",
"o  c #3F211A",
"O  c #2D341B",
"+  c #33341E",
"@  c #353A1C",
"#  c #031627",
"$  c #251F21",
"%  c #1B252E",
"&  c #092239",
"*  c #1F2130",
"=  c #2B2C25",
"-  c #2A2929",
";  c #342D24",
":  c #2E3223",
">  c #343424",
",  c #34332B",
"<  c #3B3C2B",
"1  c #383826",
"2  c #252C34",
"3  c #312F30",
"4  c #3D3C33",
"5  c #393536",
"6  c #49261C",
"7  c #472519",
"8  c #542C1D",
"9  c #493E2D",
"0  c #473629",
"q  c #533425",
"w  c #52352B",
"e  c #5C3928",
"r  c #423E33",
"t  c #493D38",
"y  c #583C34",
"u  c #4F2D21",
"i  c #633B26",
"p  c #683E32",
"a  c #3C451B",
"s  c #3C4324",
"d  c #3D4529",
"f  c #3E4130",
"g  c #43422E",
"h  c #454B25",
"j  c #444334",
"k  c #4B4435",
"l  c #4B4A33",
"z  c #454339",
"x  c #4B453B",
"c  c #4C4B3C",
"v  c #464A30",
"b  c #52433A",
"n  c #554B3C",
"m  c #5B4D3D",
"M  c #544638",
"N  c #52523B",
"B  c #7A482B",
"V  c #7D502F",
"C  c #654738",
"Z  c #764934",
"A  c #775238",
"S  c #122A42",
"D  c #2A3946",
"F  c #343D43",
"G  c #39464C",
"H  c #3B4752",
"J  c #2F4253",
"K  c #4C4A42",
"L  c #474849",
"P  c #534C44",
"I  c #544D4A",
"U  c #5D4D46",
"Y  c #545245",
"T  c #5B5344",
"R  c #55524B",
"E  c #5C534B",
"W  c #5F5A46",
"Q  c #444C54",
"!  c #4B4D52",
"~  c #4C5155",
"^  c #4E555B",
"/  c #535455",
"(  c #5C5551",
")  c #565D5E",
"_  c #61564D",
"`  c #645648",
"'  c #645B55",
"]  c #755547",
"[  c #686459",
"{  c #76685A",
"}  c #7C7C5C",
"|  c #7E624A",
" . c #4A5C60",
".. c #5B6669",
"X. c #656665",
"o. c #756B63",
"O. c #7B736A",
"+. c #7C796D",
"@. c #7B7463",
"#. c #7D7B72",
"$. c #787570",
"%. c #834D2E",
"&. c #8C4F2D",
"*. c #864925",
"=. c #954F29",
"-. c #8D512E",
";. c #87512F",
":. c #94522D",
">. c #9D542C",
",. c #834C31",
"<. c #8B4E31",
"1. c #8C4F3C",
"2. c #845232",
"3. c #8C5231",
"4. c #805439",
"5. c #945331",
"6. c #9C5532",
"7. c #9B5932",
"8. c #925338",
"9. c #984E31",
"0. c #A2552B",
"q. c #AD592E",
"w. c #A9572E",
"e. c #B45B2F",
"r. c #BB582D",
"t. c #A45432",
"y. c #A55B32",
"u. c #AC5B33",
"i. c #AB5634",
"p. c #B45733",
"a. c #B45A33",
"s. c #BB5C33",
"d. c #B75835",
"f. c #AA6034",
"g. c #B36336",
"h. c #BE6234",
"j. c #BA6A39",
"k. c #AA602F",
"l. c #C25E2E",
"z. c #CD5E2E",
"x. c #C45E33",
"c. c #CA5E30",
"v. c #C6622F",
"b. c #C36333",
"n. c #C96433",
"m. c #C66A35",
"M. c #CC6B35",
"N. c #C76639",
"B. c #D16D35",
"V. c #DD6C32",
"C. c #D36635",
"Z. c #D47036",
"A. c #D6632D",
"S. c #E46A2E",
"D. c #E17033",
"F. c #895744",
"G. c #846B54",
"H. c #8C725C",
"J. c #997759",
"K. c #936C4A",
"L. c #A37B59",
"P. c #AB7A4F",
"I. c #8A7A6A",
"U. c #847568",
"Y. c #957B64",
"T. c #847E72",
"R. c #8E7F7A",
"E. c #927F70",
"W. c #A7815D",
"Q. c #B1865C",
"!. c #83806F",
"~. c #96816C",
"^. c #878279",
"/. c #948575",
"(. c #998979",
"). c #9D907E",
"_. c #A88768",
"`. c #B58C6A",
"'. c #B98D67",
"]. c #BA916C",
"[. c #B9906A",
"{. c #A48C75",
"}. c #A78C77",
"|. c #B28F71",
" X c #B39274",
".X c #B4957B",
"XX c #BB9979",
"oX c #AE927D",
"OX c #C49A76",
"+X c #C3986E",
"@X c #D6A377",
"#X c #E0AD7E",
"$X c #968C81",
"%X c #9B9287",
"&X c #A49983",
"*X c #A89988",
"=X c #B79B84",
"-X c #AB9D90",
";X c #B6A189",
":X c #AEA297",
">X c #B5A898",
",X c #B7ADA1",
"<X c #BFB5A6",
"1X c #C5A589",
"2X c #D8AD88",
"3X c #DCB38C",
"4X c #C6AC95",
"5X c #CBAC92",
"6X c #D9B798",
"7X c #C9B39B",
"8X c #E3B48B",
"9X c #E5BA93",
"0X c #E3BC9A",
"qX c #EBBE95",
"wX c #F9BC85",
"eX c #C6B7A4",
"rX c #ECC39D",
"tX c #FCCB9C",
"yX c #F4C59A",
"uX c #FFD19D",
"iX c #DFCCAC",
"pX c #E0C2A2",
"aX c #ECC7A4",
"sX c #F5CAA3",
"dX c #FED7A9",
"fX c #FFDCBC",
"gX c #FBDAB6",
"hX c #FEE2B0",
"jX c #FFF0C2",
"kX c #FFEAC1",
"lX c #FFFEE1",
/* pixels */
"' ( E R E E P 5 j h N ( _ _ ^.~././.{ E T k I Y n n P E _ E < P ",
"I P k c P P K < < a c $X$XO.4X4X=X4X,XO.(.k x x x k P n m T : = ",
"c z P Y P I t 4 a } _.5X%XK 1X|._.OX@.T.dX*XP n n m ` T T m 1 < ",
"d : , : , = > O O !.K. X;XU..X_._.+X{ &XdX0X:XK g 9 j j P z < s ",
"z z j r z c l c iX*XG.'..XO.J._. X`.Y.5XyX9X6X+.g X : : X X O d ",
"R T n _ ' _ R.(.2XsXT.J.'.o._.].`.'.oX3X8XtX=XH.%X$X%Xr + s s d ",
"c c E E P :XXXU./.uX=XI.@X/ X._.Y.U.X.9XdXrX}.K.U.aXqX^.x z < l ",
"P I I z +.]..X1XI.9XdX) K 2 - 5 3 - * L ^.X._.Y.6XyX0XsX' , > N ",
"R I z z #.] `.'.`.$.[ $ . 6 7 o 7 6 6 .   % D ;XdX8XtX1Xz 4 > g ",
"E x r eX6X}.I._.U.# . 8 q q q e e q w q 8 7   G yXyX{ X.z z < 4 ",
"E x P *X@XdXsX[ # o e Z 5.y.q.g.g.g.u.7.B i 8   H /.@. X*X1 > 5 ",
"R c K ^.U.I.;XX.  B f.m.M.M.M.m.M.B.M.M.m.j.%.u # E.@XW. XX = 4 ",
"( P K 5XOX}.U.2 i m.B.M.b.b.h.h.h.b.b.b.n.Z.M.=.- ~.+XL.W.> j Y ",
"R P I %XG.| Y.b w.Z.m.h.b.b.b.s.s.b.h.b.b.b.B.B.e G I.o.+., < v ",
"4 , 3 3 %X/. .0 V.m.N.b.b.b.v.s.s.b.b.b.b.N.m.D.B ~ pX6XT.= , l ",
"j , , Y fXjX*Xe S.s.n.b.b.x.x.s.d.m.s.b.l.n.b.V.*.o.hXwX7XO < _ ",
"v c l ` pXtX+.9 V.c.N.b.x.x.s.d.p.n.l.b.x.N.n.D.5.D XX.X{ O 4 ' ",
"c k 9 9 &X_./ S b F.E Q F.z.r.p.d.x.c.u./ ! ] Z D D (.$XW : r [ ",
"Y c 9 M {.`.+.5 t.t.6.1.a.x.r.d.i.x.x.s.8.8.t.p.y ! OXQ.&XO r ' ",
"f r k n {.P.[ Z S.p.C.z.r.s.p.a.t.s.s.s.l.A.x.V.k.L L.J.+.X k [ ",
"r < > , &XY.G y n.q.s.p.a.e.i.u.t.p.s.a.q.p.p.C.>.! 1X=XT.: x { ",
"` ` r /.dXkX^.w l.t.a.i.e.u.,.%.,.B t.p.t.u.a.M.=.) pX2X-Xj 1 ' ",
"m n M O. X0X#.w s.6.u.0.u.6.Z C y C ,.e.6.t.u.m.7.G ~.~.^.x X > ",
"m m b [ ~.]...t e.>.y.6.y.t.e y p 0 <.u.>.6.y.b.%.( @XXX:Xs O - ",
"N n k [ H.K.H y q.6.t.6.7.6.>.9.5.=.6.6.6.5.y.g.8.F { C @.@ = z ",
"M M 9 { *X<X..w w.5.6.:.6.5.6.5.5.6.:.7.:.5.t.y.-.F :X<X,Xz = x ",
"4 1 ; >XfXlX,X; 0.>.6.5.6.:.-.3.3.-.&.7.:.:.y.q.i ^ gXfXgXI = z ",
"1 > @ &X9XdX*X& 5 U L J ` :.&.<.<.<.=.4.H J U b & Q rXrX0XP - 4 ",
"g j 1 ).8XgX).% C Z C m 4.-.,.%.<.%.&.2.C C A Z - ! sXaXpXP = 4 ",
"v < ; ).8XtX$X0 0.:.6.>.5.,.%.%.2.,.,.:.:.:.7.y.i ~ aX9XpXP , 4 ",
"1 4 + !.#XyX>Xb *.2.%.;.3.,.%.%.2.B B 3.;.%.3.:.q ~ yX9X0XR , 5 ",
"K f h } 2XqX;Xt *.%.%.,.2.%.V ,.,.Z B 2.2.2.V ;.q / rX3X2X( 4 K "
};
