/* XPM */
static char *c96392a6ba704f0d89d3af273b95fe2btBtiwXxj7KgyWUod[] = {
/* columns rows colors chars-per-pixel */
"32 32 222 2 ",
"   c #292B17",
".  c #302F1D",
"X  c #2D361B",
"o  c #343B1C",
"O  c #1E023C",
"+  c #06313B",
"@  c #2A2A24",
"#  c #2D2E29",
"$  c #292A26",
"%  c #2E3223",
"&  c #363323",
"*  c #393526",
"=  c #363924",
"-  c #34342A",
";  c #3B3C2C",
":  c #393A2A",
">  c #3D3E33",
",  c #3B3735",
"<  c #332F26",
"1  c #423E2C",
"2  c #423E34",
"3  c #443D3B",
"4  c #4D3A3E",
"5  c #39431A",
"6  c #3C4323",
"7  c #3E452B",
"8  c #3E4825",
"9  c #3F4135",
"0  c #43442D",
"q  c #444A27",
"w  c #434334",
"e  c #4B4534",
"r  c #4D4D36",
"t  c #45443A",
"y  c #4B463C",
"u  c #4C4A3C",
"i  c #454930",
"p  c #504538",
"a  c #534B3C",
"s  c #5B4E3C",
"d  c #574C36",
"f  c #4E523C",
"g  c #56533C",
"h  c #201B44",
"j  c #0E3549",
"k  c #3B3558",
"l  c #3A2850",
"z  c #3C3A65",
"x  c #4B3D4B",
"c  c #472657",
"v  c #592A59",
"b  c #41305D",
"n  c #5B3B5D",
"m  c #5C2544",
"M  c #50016A",
"N  c #5A1D6A",
"B  c #570279",
"V  c #591E74",
"C  c #4A0363",
"Z  c #6E0C7B",
"A  c #680C74",
"S  c #78077F",
"D  c #68137A",
"F  c #442E65",
"G  c #4B2868",
"H  c #5D3F61",
"J  c #552471",
"K  c #492D67",
"L  c #6E2D74",
"P  c #074243",
"I  c #065758",
"U  c #0E554E",
"Y  c #2A485B",
"T  c #36455E",
"R  c #205C5D",
"E  c #25545A",
"W  c #026B54",
"Q  c #126D5B",
"!  c #1A665C",
"~  c #0D795D",
"^  c #077A5C",
"/  c #12725D",
"(  c #0D5962",
")  c #334864",
"_  c #295462",
"`  c #32526B",
"'  c #056661",
"]  c #196C61",
"[  c #027C6B",
"{  c #057964",
"}  c #127F6D",
"|  c #276562",
" . c #4C4B44",
".. c #4F494E",
"X. c #534C44",
"o. c #5A4E42",
"O. c #534D4A",
"+. c #504740",
"@. c #545245",
"#. c #5C5346",
"$. c #5B544C",
"%. c #57554A",
"&. c #574855",
"*. c #5C5753",
"=. c #615344",
"-. c #63594B",
";. c #62574A",
":. c #66495A",
">. c #625B53",
",. c #6A5B56",
"<. c #755659",
"1. c #7D475E",
"2. c #696258",
"3. c #5E5E6A",
"4. c #565767",
"5. c #4B5565",
"6. c #68496A",
"7. c #774B68",
"8. c #645462",
"9. c #6B5C62",
"0. c #6C5A6A",
"q. c #765668",
"w. c #784D76",
"e. c #78646C",
"r. c #6E636E",
"t. c #8A5A56",
"y. c #89635A",
"u. c #876A79",
"i. c #8E7271",
"p. c #906F68",
"a. c #A67E73",
"s. c #05875D",
"d. c #04935D",
"f. c #0B8162",
"g. c #038A63",
"h. c #0F846D",
"j. c #0C8B6E",
"k. c #048868",
"l. c #11836D",
"z. c #10886E",
"x. c #029364",
"c. c #04956D",
"v. c #09926F",
"b. c #02996C",
"n. c #0E8470",
"m. c #0D8C72",
"M. c #078C71",
"N. c #138371",
"B. c #118971",
"V. c #049571",
"C. c #099472",
"Z. c #039B72",
"A. c #099B74",
"S. c #02A465",
"D. c #02A475",
"F. c #01AF72",
"G. c #00B269",
"H. c #B18B72",
"J. c #BDA575",
"K. c #C9AC7A",
"L. c #680887",
"P. c #720C84",
"I. c #7A068A",
"U. c #721986",
"Y. c #6C0192",
"T. c #780698",
"R. c #7E169F",
"E. c #533784",
"W. c #6E2181",
"Q. c #7A06A4",
"!. c #7F17A3",
"~. c #83048A",
"^. c #8A029B",
"/. c #860494",
"(. c #910099",
"). c #8E01A4",
"_. c #9501A5",
"`. c #9301AB",
"'. c #9801AC",
"]. c #9603A6",
"[. c #8115A5",
"{. c #8219A4",
"}. c #8315A9",
"|. c #8319AC",
" X c #8816AC",
".X c #8B08B6",
"XX c #9B03B3",
"oX c #940AB4",
"OX c #9B0BBB",
"+X c #9409BB",
"@X c #8B16B3",
"#X c #8919B5",
"$X c #9310B6",
"%X c #9113BB",
"&X c #9719C3",
"*X c #B79481",
"=X c #CDB283",
"-X c #D4BD82",
";X c #C9AC80",
":X c #ECBE91",
">X c #E8BC8B",
",X c #DFC991",
"<X c #DFC286",
"1X c #E6CB8A",
"2X c #E3CD94",
"3X c #E8CE97",
"4X c #E2CB97",
"5X c #F2C592",
"6X c #F6CB96",
"7X c #E4D194",
"8X c #EBD496",
"9X c #EDD996",
"0X c #EFD89A",
"qX c #FAD496",
"wX c #F3E29C",
"eX c #FAE49E",
"rX c #FCED9D",
"tX c #F5EA9B",
"yX c #FDF49C",
"uX c #FCEBA2",
"iX c #FBF5A4",
"pX c #FFFCAA",
/* pixels */
"2.*.$.O.$.$.O., w q f $.-.$.=.;.=.=.o.$.#.y O.X.X.d o.$.-.%.= O.",
"O.X.p y X.O.y ; ; 5 a 9.9.w.w.L L L U.U.L <.+.u e p X.X.s #.% @ ",
"f w X.$.O.O.t 2 ,.x c Z T.T.Q..X.X+XXXP.j P k q.o.s =.o.#.g = ; ",
"7 % % % # - :.k j W { E.^.^.^./.P.D G ! b.D.k.P H 4 e e  .y ; 6 ",
"t y w > X.6.j { Z.m.v.g.] ` ) _ ] ~ g.V.h.l.B.Z.W h :.=     X 7 ",
"%.#.a ,.4.U b.m.l.h.h.h.c.b.c.c.c.j.h.l.l.l.h.B.C.g.+ 8.= 6 6 7 ",
"u u ,.n U F.m.} h.h.l.h.h.h.h.h.h.h.h.l.l.h.l.l.h.D.^ O w.u 1 r ",
"X.>.6.M V ! b.m.l.l.h.h.h.z.c.c.b.b.m.l.l.h.l.N.b.~ N ).B 8.& r ",
"%.0.C .XOXS Y x.C.l.l.h.C.x./ _ z ) f.C.l.l.l.V.s.G _.&XQ.D & 0 ",
"2.v Y.#X{.OXI.E b.l.m.b.Q K P./.).(.G f.c.l.l.b.R I.+X!.@XT.; ; ",
"e.B .X}.R.#X'.J s.A.b.R Z '.%X X}.%X_.k x.m.j.x.F ).@X[.}.Q.& , ",
"6.Y.@X[.}.|.'.P./ G.Q Z XX@X[.}.!.|.XXD ~ b.C.g.J `.@X[.[. X% > ",
"L Y.#X}.[.|.XXZ f.S.F `.@X[.[.[.}.[.oXI.| x.V.s.G '.#X[.[.}.t @.",
"W.Q.|.[.{.%X_.b S.d.V '.|.[.}.[.[.!.oX/.R x.m.x.T ^.$X{.[.}.: e ",
"Z `.$X#X%X].N { D.g.K _.@X[.[.[.!.|.XXZ / b.l.Z.s.N ].%X@X`.- e ",
"k z P.^.~.F s.Z.h.x.Y ^.oX[.[.[.}.OX(.z x.m.l.B.c.~ F P.P.J ; -.",
"| d.] T ! x.C.l.} Z.^ N XX%X@XoX).~.F g.c.l.l.h.h.C.g./ Q g.1 ,.",
"T ^ D.b.c.j.l.h.h.B.b.! A /.I.A b R x.C.N.l.l.h.h.l.l.j.j.V.2 2.",
"4.W A.N.l.l.h.h.l.h.B.C.~ E E / x.c.j.l.h.h.h.h.l.h.l.l.B.k.2 ,.",
",.P c.j.h.l.h.l.h.l.l.n.v.c.c.j.n.h.n.h.l.h.l.l.h.l.h.m.D.I y 2.",
"O.&.+ k.V.j.h.l.l.n.l.h.h.l.h.h.l.h.l.h.l.h.h.h.l.C.Z.k.+ c e 2.",
"-.,.q.k U I { V.V.M.M.m.j.h.h.h.h.h.l.h.h.M.c.V.k.I j l u.X.& >.",
"s a p $.e.:.5._ I I I I ' { { { [ [ [ { ' I ( Y k n 9.y O.y   - ",
"s s e u @.O.X.q.t.*Xa.i.r.3.3.3.4.5.4.3.u.p.1.9.0 6 6 6 7 8 . $ ",
"d d e r u @.$.q.=XpXeXeXqX6X5X5X:X>X:X5XeXyXH.8.y 0 ; ; X o $ 3 ",
"a d 1 w @.X.&.7.-XuX2X3X7X8X8X8X0X9X8X8X2XrXH.e.y y y w 9 t # y ",
"> * & u @.@.&.7.<XuX4X2X2X2X2X2X2X7X2X7X2XuX-Xu.X. . . . . .# w ",
"- & & 0 r u x 7.1XtX2X2X2X2X7X2X2X2X2X2X2XrXK.e.O. . . . .X.$ 2 ",
"0 w = ; w : ..:.-XiX4X2X2X7X3X2X2X2X2X2X,XpXJ.:... . . . .O.$ > ",
"i : < e y w q 6.t.yXwX,X7X2X2X2X2X7X2X2XeXrXy.0. . .t w  .O.# > ",
": ; . & 3 ; 5 $.6.t.tXiX9X7X8X9X0X9XwXiX1X<.0.O. .y ; 2  .O.- , ",
" .9 q 8 7 ; 7 X.g 8.m a.K.-X2X4X=XK.K.p.v 9.*.>.X.t u O...*.3 u "
};
