/* XPM */
static char *_b304910c7e2407ebc5d8a579ad6ef24q6U1X2TwXwmkSZyb[] = {
/* columns rows colors chars-per-pixel */
"32 32 251 2 ",
"   c #060403",
".  c #0A0907",
"X  c #1C1402",
"o  c #191606",
"O  c #1A1512",
"+  c #161418",
"@  c #0F1008",
"#  c #2A0904",
"$  c #380703",
"%  c #281B07",
"&  c #291B19",
"*  c #3C1507",
"=  c #19230B",
"-  c #2D2A0E",
";  c #282308",
":  c #34270A",
">  c #3C3209",
",  c #292716",
"<  c #2D331D",
"1  c #2F3917",
"2  c #373516",
"3  c #322E11",
"4  c #2B2B24",
"5  c #2C2B2A",
"6  c #312C29",
"7  c #2E312A",
"8  c #2D3323",
"9  c #343423",
"0  c #34332B",
"q  c #3C3B2C",
"w  c #383928",
"e  c #3E3C32",
"r  c #3B3B36",
"t  c #273A34",
"y  c #460806",
"u  c #570506",
"i  c #5B1C0F",
"p  c #6B0B06",
"a  c #6E1612",
"s  c #452806",
"d  c #4A390A",
"f  c #573A06",
"g  c #5C2314",
"h  c #473C17",
"j  c #523D15",
"k  c #523E1B",
"l  c #4E2C09",
"z  c #663709",
"x  c #693019",
"c  c #783217",
"v  c #6F2F10",
"b  c #631C20",
"n  c #433D2D",
"m  c #483325",
"M  c #433C34",
"N  c #463D3A",
"B  c #5E3D2E",
"V  c #683728",
"C  c #693131",
"Z  c #3B4423",
"A  c #3D422B",
"S  c #3E482A",
"D  c #3F4336",
"F  c #334314",
"G  c #56450D",
"H  c #4E4214",
"J  c #47471A",
"K  c #554716",
"L  c #49551C",
"P  c #5A561D",
"I  c #764507",
"U  c #674A0F",
"Y  c #7F6A1B",
"T  c #47452B",
"R  c #495324",
"E  c #5D5427",
"W  c #444334",
"Q  c #4B4535",
"!  c #4D4B36",
"~  c #45453B",
"^  c #4B443C",
"/  c #4C493C",
"(  c #474C37",
")  c #50463A",
"_  c #534B3B",
"`  c #594C3C",
"'  c #554635",
"]  c #5A503C",
"[  c #525339",
"{  c #4E5038",
"}  c #674526",
"|  c #635923",
" . c #785C27",
".. c #79573B",
"X. c #694A33",
"o. c #576926",
"O. c #6A6928",
"+. c #6D6837",
"@. c #786D2D",
"#. c #34354A",
"$. c #483F40",
"%. c #2B4E54",
"&. c #4B4B44",
"*. c #4A4947",
"=. c #534C44",
"-. c #544E4A",
";. c #574B45",
":. c #545343",
">. c #5B5343",
",. c #55544C",
"<. c #5B544B",
"1. c #5A5A45",
"2. c #5C5551",
"3. c #5E5B53",
"4. c #545351",
"5. c #495552",
"6. c #63554C",
"7. c #665B48",
"8. c #625C52",
"9. c #645853",
"0. c #7B4552",
"q. c #5E6358",
"w. c #6D6845",
"e. c #776346",
"r. c #6C6354",
"t. c #64625A",
"y. c #69655B",
"u. c #6B6958",
"i. c #746859",
"p. c #75735C",
"a. c #6C5F73",
"s. c #686460",
"d. c #757065",
"f. c #716362",
"g. c #566970",
"h. c #8F120F",
"j. c #A6080A",
"k. c #A30818",
"l. c #B51A16",
"z. c #963819",
"x. c #8A2811",
"c. c #A92D1C",
"v. c #B71E33",
"b. c #B41430",
"n. c #8B2F2E",
"m. c #AC2E2B",
"M. c #8E1828",
"N. c #C31A15",
"B. c #CD382E",
"V. c #F02626",
"C. c #C92221",
"Z. c #8F580A",
"A. c #93580A",
"S. c #865D1B",
"D. c #9A5915",
"F. c #964716",
"G. c #8D610C",
"H. c #9B731A",
"J. c #AA7B14",
"K. c #865622",
"L. c #8D4B31",
"P. c #B65837",
"I. c #B3502D",
"U. c #89722D",
"Y. c #856539",
"T. c #927131",
"R. c #A27829",
"E. c #A86136",
"W. c #BA7321",
"Q. c #AE531E",
"!. c #C25229",
"~. c #C74B32",
"^. c #E65330",
"/. c #C6632C",
"(. c #C1742C",
"). c #D3642A",
"_. c #F2653A",
"`. c #B43A49",
"'. c #DF1D40",
"]. c #D12C4A",
"[. c #984E4C",
"{. c #AB584B",
"}. c #886448",
"|. c #86764D",
" X c #936B54",
".X c #8A7558",
"XX c #98755C",
"oX c #93704C",
"OX c #A66844",
"+X c #A5775A",
"@X c #B1704E",
"#X c #915861",
"$X c #877966",
"%X c #A36268",
"&X c #EB4A42",
"*X c #D26E53",
"=X c #E15C61",
"-X c #828C38",
";X c #B3892E",
":X c #AB8439",
">X c #AB8226",
",X c #CB8A3A",
"<X c #D2AF39",
"1X c #808946",
"2X c #B48554",
"3X c #A6AE4A",
"4X c #B4B444",
"5X c #98967C",
"6X c #94846C",
"7X c #A88D74",
"8X c #B59477",
"9X c #AE8D71",
"0X c #B1A570",
"qX c #C59B4C",
"wX c #E98958",
"eX c #ED8D54",
"rX c #EFAE46",
"tX c #CD9B71",
"yX c #E5926B",
"uX c #DBB379",
"iX c #F3AD77",
"pX c #E8C243",
"aX c #CCC24F",
"sX c #2E6E9A",
"dX c #4D6E9D",
"fX c #308DCA",
"gX c #5ABFEB",
"hX c #70CFEB",
"jX c #AA9E87",
"kX c #B79981",
"lX c #B7A483",
"zX c #AEA489",
"xX c #BEB4B3",
"cX c #C8B696",
"vX c #DAB491",
"bX c #F0B58B",
"nX c #FACA95",
"mX c #F8CCA1",
"MX c #EDD6A7",
"NX c #FDE6AA",
"BX c #FCE7B6",
"VX c #D5C5AC",
"CX c #85F6FA",
"ZX c #9CE5EE",
"AX c #C0D4DB",
"SX c #FDF5C7",
"DX c #FCFCD8",
"FX c #F8ECC8",
"GX c #FDF9EC",
"HX c #FEFDFA",
"JX c ivory",
/* pixels */
"t.<.<.-.<.9.f.$X1.R [ 2.8.r.X.6X$Xr.>.i.8X*XyX5X` _ =.>.6.>.q &.",
"-.=.Q / =.<..XP.*XlXp.d.1X3X3X4XaX@XXXwX_.j.~.jX! ^ =.;.` >.< 4 ",
"{ ~ =.<.-.-.i.u h.!.z.z.~.E.-X-Xx j.^.%X#Xm.N.7X;.>.>.>.>.:.w q ",
"S 8 0 8 7 0 7.i h.b #.n.V.c.L o.g k.V.xXCXZX0.I.` n W W =.~ w Z ",
"~ ~ D M W / r.h.a.fXsXn.N.I.:X,X,Xz.j.^.AXZXhXM.{.3 8 9 < , 1 Z ",
",.>.=.6.9.9.[.[.gXdXC l.c.K.(.(.H.v k.h.c.&X=XB.m.7.6.M < Z Z S ",
"/ / <.<.=.-.C n.[.h.p p k.y @ ; = y p y y u p y y XX9.r N N q ! ",
"=.-.-.~ e 7.* y u $ # * g j R L o.O.P P P L L J % w.3.M 6 0 9 ! ",
",.=.W q W 7.@ % ; 2 J L L O.O.P | @.@.| | @.T.U.w.u.s.N 6 e w T ",
",.^ N *.=.N @ 2 T k j l : s } OXE.c i v x.z.P.@X3.*.,.~ M ^ q e ",
"<./ &.&._  .T.B V x i c c g @XmXbXP.Q./.Q.!.wXbX6X=.5.^ w 9 9 0 ",
"<.=.&.2.j oX}.e.}.v v F.Q.L.8XDXDXwX)./.!.^.nXSXmX6X&.&.9 , 4 M ",
"<.&.&.t.e.} }.6X9XOX!./.P.+XMXJXHXBXeXeXrXiXGXJXNXjX&.=./ w W :.",
"4.=.-.-.t.|.}.XX7XcXvXtX8X8XuXnXmXFXSXNXSXHXHXFXlXy.*.<.Y.Z.w W ",
"r 0 7 7 w 1.|.XX7XzXcXcX8X+Xn.x.c.yXBXSXHXHX5XT y.M e.D.z *.w Q ",
"W w 0 M q q i.E 7.8XlX7X9X+X..g L.iXnXBXSXBX7.. Y.Y. .e.dX4.w 6.",
"( ! Q ] >.:.3 o > E .X7X5XXX}.oX2XtX0XkX7XY.S.D.I U y.6.t.< e 9.",
"/ Q n n T 1.@ - h = i m.[.}. X.X X{.`.n.I Z.D.U H P r._ Q < M r.",
":./ T ) ! 1.% ; , o u k.b.'.v.].].'.B.c f l : 2 P > 7.=.W < W 8.",
"A q Q _ >.] ; o . # g x a v.v.].B.A.U K.P.V @ - 2 ; +.5 , , ~ r.",
"M n 9 e ; > k > ; m XX9XV L.2Xc Y @.L.bXBXmX..o 2 H G r.~ 7 Q r.",
"7.6.M <.@ > H H }  X8XvXoXD.;X0XDXVXF.NXDXDXvXj H d h d.3.W 9 q.",
"] ` ! <./ ; H - & }.2XqX;Xz  XGXGXuXW.mXBXNXbXT.> @ 3.~ -./ , 0 ",
"] ` Q / y.@ o   H <X<XpX<XJ.S.qX>XH.H.R.R.S.s s % ~ Z Z S Z < 5 ",
"_ ` ' ( [ *.% U U.J.J.J.G.G.z f f f d % X X , :.9.T q q 1 1 4 $.",
"_ ' n ! 7.oXA.|.5.f U f f G d > 2 3 ; O   M M _ Q ^ / W W ~ 5 ^ ",
"n n 7.:XZ.S.r.q.%.2 s d G G o     + & & # m 7.8.Q &.&.&.&.-.7 W ",
"w R.A.z 7.:.D &.g.t f G H , =.=.O . + & & X - 8./ &.&.&.&.&.4 M ",
"W I X.:.W w ^ =.s.r : 2 X O i.>.7.r.+   , ; - 3.&.&.&.&.&.=.5 e ",
"T 1.M Q ) W Z _ 2.9.. o . r.<.` ` ` 3.o . X ; t.&.&.~ ~ &.-.7 e ",
"w q 9 0 N A F :.4.,.,   <.6.<._ _ ' _ _ <.O   8.=.&.q e &.-.0 q ",
"&.D T S A n W &.{ [ , o f.=.>.<.W =.6.>.[ 1., @ t./ / -.-.2.r &."
};
