/* XPM */
static char *b51525145db5449296cb20b29aa08289f05yHX31ExNr87b3[] = {
/* columns rows colors chars-per-pixel */
"32 32 153 2 ",
"   c #211B0F",
".  c #1F2219",
"X  c #252415",
"o  c #252A16",
"O  c #2B2C15",
"+  c #26261D",
"@  c #2A261C",
"#  c #2C2B1D",
"$  c #2C3514",
"%  c #2D331C",
"&  c #343015",
"*  c #31351D",
"=  c #3A331D",
"-  c #323C1C",
";  c #262521",
":  c #282722",
">  c #2B2C24",
",  c #292728",
"<  c #2E2E29",
"1  c #322E23",
"2  c #322E2B",
"3  c #2E3123",
"4  c #343424",
"5  c #3A3525",
"6  c #363B24",
"7  c #3B3C24",
"8  c #34332B",
"9  c #3A352B",
"0  c #37392A",
"q  c #3C3B2C",
"w  c #363533",
"e  c #3E3B32",
"r  c #3E3D39",
"t  c #433C27",
"y  c #41372B",
"u  c #423C2C",
"i  c #4B3F2E",
"p  c #433D34",
"a  c #483F35",
"s  c #443C3C",
"d  c #483F39",
"f  c #34431A",
"g  c #3C431C",
"h  c #374025",
"j  c #3D4424",
"k  c #3D422B",
"l  c #3E4034",
"z  c #414B19",
"x  c #444C25",
"c  c #43432C",
"v  c #4B442C",
"b  c #464C2B",
"n  c #4B492E",
"m  c #534C2F",
"M  c #444334",
"N  c #4A4335",
"B  c #444A30",
"V  c #4C4B35",
"C  c #45433A",
"Z  c #4C453B",
"A  c #46483D",
"S  c #4C493C",
"D  c #534535",
"F  c #554A36",
"G  c #584D37",
"H  c #51463C",
"J  c #534B3C",
"K  c #5A4D3C",
"L  c #4D5236",
"P  c #4F513C",
"I  c #545234",
"U  c #5A5237",
"Y  c #52513C",
"T  c #5A513E",
"R  c #65553E",
"E  c #474742",
"W  c #4B4641",
"Q  c #464942",
"!  c #4D4B43",
"~  c #4D4E49",
"^  c #534743",
"/  c #534C43",
"(  c #594D43",
")  c #534D49",
"_  c #594F4D",
"`  c #594E4A",
"'  c #4E5143",
"]  c #515242",
"[  c #575143",
"{  c #575540",
"}  c #545045",
"|  c #555146",
" . c #575347",
".. c #555344",
"X. c #5A5140",
"o. c #5A5245",
"O. c #5A5446",
"+. c #5D5646",
"@. c #5B5344",
"#. c #5F5941",
"$. c #57504A",
"%. c #57534A",
"&. c #545448",
"*. c #565448",
"=. c #55504D",
"-. c #57524C",
";. c #54514B",
":. c #5A5148",
">. c #5A514A",
",. c #5C5248",
"<. c #5C5449",
"1. c #5C5648",
"2. c #5C554B",
"3. c #59524C",
"4. c #5A504E",
"5. c #5D524C",
"6. c #5C534E",
"7. c #59564F",
"8. c #5E554E",
"9. c #5B544B",
"0. c #5A4E50",
"q. c #5B5652",
"w. c #5D5552",
"e. c #5E5653",
"r. c #5B5756",
"t. c #5B5450",
"y. c #5D5952",
"u. c #604F47",
"i. c #605340",
"p. c #625743",
"a. c #615144",
"s. c #605245",
"d. c #635346",
"f. c #615445",
"g. c #62544B",
"h. c #60564C",
"j. c #62554F",
"k. c #64574E",
"l. c #625B4B",
"z. c #605A4C",
"x. c #645A4C",
"c. c #6C5F4F",
"v. c #614B58",
"b. c #615650",
"n. c #645751",
"m. c #605953",
"M. c #655852",
"N. c #615C53",
"B. c #695F56",
"V. c #6A5D54",
"C. c #675F5C",
"Z. c #6A6057",
"A. c #706454",
/* pixels */
"C.e.3.$.5.8./ w M x P 7.j.g.s.p.s.s.( +.2.Z / ) K J ) ,.k.O.9 ^ ",
") / Z Z ^ ) W e 7 g V ) / / K F F N Z H F N Z N N D / / K +.3 > ",
"P N / -.) ` C q g z j V ! ) / J J J V ) ^ M / J F T s.u.X...4 9 ",
"k 3 8 4 3 < 3 % $ % - b ] )  ./ ! ) -.E 6 - M H M u M M / Z 7 j ",
"C C M M M S V N 0 > : o 4 7 7 7 6 6 6 4 $ $ O * # O * * # o * k ",
"&. ./ j.M.n.b.B. .u @ q V V V Y Y L I c q / ( ( 3.o.2.p % g j k ",
"S S 5.` ^ ) ) Z ( a = #.z./ / W / / 3.N c l.m.3.) _ r.r d a t V ",
"/ $.` C e M S F i.v = Y / p d Z Z N H p q ..! ! ! ` e.p 2 9 4 V ",
"$.! C q p N F U U v 5 V Z N / ) Z Z H u q &.Q Q ! ) t.s > e 4 c ",
"$.W p C / / F m I I & u / Z H p C W ! p u ..S ! ! ! ;.C e N q e ",
"3.Z ! ! ! S v v n b O c / Z N d Z Z W p 4 M M M Z Q ~ C 4 5 4 w ",
"3.H ^ ! C M J H V N / ] Z Z Z Z N a N C p p p M J A ! ! 4 o 3 r ",
"7.S ! ^ S N O.` / / / H Z Z Z p p Z Z ! o./ / H K C E / Z 4 N  .",
"-.;.) -.$.S J ( M p Z a Z Z Z N S H ! Z Z J S / H C ! Q e 8 0 N ",
"r 8 2 2 9 u Z / C Z Z Z N Z Z Z S S / p Z K H H / e 8 9 8 > 4 N ",
"M 0 8 l q 7 H ^ Z K Z / Z Z N N Z H / H J J Z H / 8 9 ` ` # q x.",
"B S n K #.V } / K Z Z Z Z Z Z N N Z Z H H Z Z Z / 8 M 8.X.% e B.",
"S N t i v n / / ( / Z Z Z N Z Z C C a N Z Z N Z / 8 t K N % p Z.",
"..S i D n n J ` ` / H Z Z Z C M M Z Z Z Z p N S ! 8 5 / c % M c.",
"k q N J n M H / ^ / d H H Z M M Z H H W C p S ^ ^ 9 X + X . Z c.",
"p y 4 1 6 6 / N d Z p N Z Z Z S Z N Z ! Z S W d W p q Z Z 3 N A.",
"l.f.p ) / # # # # @ # 1 Z / ! ! W H ) Z 1 : ; X + > N m.y.M 4 Z.",
"T G Z 3.2.4 o % * M 9 @ W Z S Z N / ) e + ; 9 * $ * 7 C ;.V X 8 ",
"K K Z S ../ ) Y ..N.M + Z S N Z / / ( e + # Z V j 7 j j c j % , ",
"G G N V S /  . . .t.l @ / o.J ( / ` s.e + @ p / Z p c q * - > s ",
"J F i N ' / ] / / O.q 4 ! Z Z Z N a J C > @ u Z Z Z S C M C > Z ",
"e 9 1 V  .o.! ! ' ..p 1 4 # # # # # @ # @   5 V N ! ! ! ! ) < C ",
"0 4 4 c S S A Q ..8.C @ 9 p a u k q q 9 9 9 q Z S Q ! ! ! ^ : p ",
"M M 4 q p 9 C / t.$.S r p T i.X.K K J ! ! / W W ! Q ! ! ! ) > e ",
"B q 1 N W M j K 0.) m.C 5 R ,.( F K H S S E W Q ! ! C C ! ) < e ",
"0 q 4 4 p k f / 3.V ..e p f.3.F J F F H S C W ) ! Z q p W ) 8 9 ",
"! l b j k k c ! L b h s v.^ O.,.M / 2.+.G Y y.y.! Z S ) ;.t.s ! "
};
