/* XPM */
static char *e333ba8cc88e425aa55fa5be621cc7a688ylpwIi2DGmrqfl[] = {
/* columns rows colors chars-per-pixel */
"32 32 201 2 ",
"   c #081005",
".  c #081A0A",
"X  c #061804",
"o  c #11190C",
"O  c #032603",
"+  c #082207",
"@  c #0A2E05",
"#  c #0D2C0B",
"$  c #0C2309",
"%  c #14280F",
"&  c #0B3405",
"*  c #0E3A04",
"=  c #0C340A",
"-  c #0D3909",
";  c #113C03",
":  c #1E3E05",
">  c #14350B",
",  c #153B0A",
"<  c #1B3B0E",
"1  c #142A14",
"2  c #133012",
"3  c #1F3E12",
"4  c #223F0F",
"5  c #292B16",
"6  c #2A2F1B",
"7  c #2E321C",
"8  c #353C1E",
"9  c #2D2C27",
"0  c #322F24",
"q  c #2F3222",
"w  c #323525",
"e  c #3A3524",
"r  c #363B24",
"t  c #3A3C27",
"y  c #34322B",
"u  c #3D362C",
"i  c #36392B",
"p  c #3B3B2C",
"a  c #353430",
"s  c #383435",
"d  c #3C3C33",
"f  c #423C2E",
"g  c #423F34",
"h  c #423D3B",
"j  c #144204",
"k  c #1A4304",
"l  c #164906",
"z  c #1D4A04",
"x  c #164109",
"c  c #1D440A",
"v  c #174B09",
"b  c #1E4C0B",
"n  c #24450E",
"m  c #234B0B",
"M  c #224E03",
"N  c #245504",
"B  c #275807",
"V  c #2A5F07",
"C  c #27500C",
"Z  c #29550C",
"A  c #2C5C0B",
"S  c #254413",
"D  c #294514",
"F  c #264913",
"G  c #2A4B15",
"H  c #264118",
"J  c #2C4C19",
"K  c #3D4219",
"L  c #2D5215",
"P  c #2E5A12",
"I  c #2F5319",
"U  c #315316",
"Y  c #325B16",
"T  c #315419",
"R  c #345C1A",
"E  c #2D610C",
"W  c #32640F",
"Q  c #336415",
"!  c #356C11",
"~  c #396D15",
"^  c #37621A",
"/  c #3A651C",
"(  c #3C6B1D",
")  c #397012",
"_  c #3E731D",
"`  c #2C4B22",
"'  c #324027",
"]  c #344C24",
"[  c #3F4927",
"{  c #3F422F",
"}  c #3D4829",
"|  c #365223",
" . c #3A5425",
".. c #3A5B26",
"X. c #3D592A",
"o. c #3D532C",
"O. c #3F4134",
"+. c #3F5830",
"@. c #3D6C21",
"#. c #3F7221",
"$. c #416D1E",
"%. c #41741D",
"&. c #44791E",
"*. c #49422F",
"=. c #484F2D",
"-. c #444928",
";. c #445D2E",
":. c #434434",
">. c #4B4535",
",. c #464C34",
"<. c #4B4936",
"1. c #45443B",
"2. c #4B453C",
"3. c #4C4A3B",
"4. c #514634",
"5. c #524C34",
"6. c #514338",
"7. c #534B3C",
"8. c #5C4F3F",
"9. c #425733",
"0. c #4B5536",
"q. c #445C34",
"w. c #4D5F37",
"e. c #47573A",
"r. c #4E503B",
"t. c #465C38",
"y. c #4B5C3C",
"u. c #51543A",
"i. c #5D523E",
"p. c #406F21",
"a. c #427421",
"s. c #467C22",
"d. c #497E23",
"f. c #436034",
"g. c #4C6235",
"h. c #476039",
"j. c #4B633C",
"k. c #50613B",
"l. c #5B683C",
"z. c #464742",
"x. c #4A4640",
"c. c #4B4B43",
"v. c #524741",
"b. c #534C44",
"n. c #5A4E43",
"m. c #544D49",
"M. c #594F4A",
"N. c #4F5141",
"B. c #4D5A46",
"V. c #545244",
"C. c #5B5343",
"Z. c #515F46",
"A. c #56524C",
"S. c #5B534B",
"D. c #555D49",
"F. c #5B5A4C",
"G. c #5C5751",
"H. c #5D5A52",
"J. c #5E5858",
"K. c #615345",
"L. c #63574E",
"P. c #655C4C",
"I. c #635653",
"U. c #645C53",
"Y. c #536344",
"T. c #566943",
"R. c #546349",
"E. c #59664A",
"W. c #576A4A",
"Q. c #5C6A4B",
"!. c #5B6452",
"~. c #5F6A51",
"^. c #5F605A",
"/. c #626D4E",
"(. c #646455",
"). c #6B6557",
"_. c #646C54",
"`. c #65615B",
"'. c #6F645E",
"]. c #646D5A",
"[. c #6A6C5C",
"{. c #6C6B56",
"}. c #726F5E",
"|. c #617156",
" X c #64715A",
".X c #6E705B",
"XX c #6B725C",
"oX c #6D6B63",
"OX c #666B64",
"+X c #726C60",
"@X c #6E7661",
"#X c #717167",
"$X c #737462",
"%X c #797260",
"&X c #707964",
"*X c #76756E",
"=X c #7B776B",
"-X c #7D7970",
";X c #4B8324",
":X c #4C8826",
">X c #4D8428",
/* pixels */
"`.I.A.M.S.S.b.s :.-.u.S.L.+X%XK.K.K.n.S.C.2.M.V.7.7.b.S.L.S.r b.",
"m.v.2.b.b.M.2.d t K <.m.b.$X;.i.4.4.>.7.7.>.(.).>.6.7.b.n.C.q 9 ",
"r.>.b.`.[.m.1.f 0.l.[ <.c.#X1 .X5.7.5.m.b.2.T.XX7.C.K.n.C.C.p F.",
"} q y d X.Z.w 7 }  ./.=.V.oX$ |.b.M.A.x.r 0.2 @X*.f :.:.v.2._.J ",
"1.1.:.:.XXo .X<.{ X.3 i 8 Q.& J <.8 ' w r W.. ~.7 5 q w 6 N.% j.",
"V.V.b.I.'.3 > =XV.~.  W.u.[.x & &Xr.u.*.2.G @ $XS.C.S.g ,.F + _.",
"3.3.S.M.m._.O | C.).@ = $XU.c ; ~.M.S.2._.& x *XA.A.J.x.9.O ..u.",
"F.S.m.1.d (.l * $XC.F ; T.(.T B | n.2.>.h.j m OXc.m.H.Y.* * Q.7.",
"T.#X1.d g >.;.N m /.g.Z m  ...( , [.v.F.c A L ^.c.A.XX= A c <.V.",
" X1 H.1.].7.{.v Q J | Y ^ : L &.j ].m.~.; W ..A.c.oX2 Q v [.{ ] ",
"oX# ` b.W.e.>.g.! P S U a.P J &.N Y.b.;.B V f.c.S.S M _ T N.E.  ",
"G.g.X E.[.2 Q._.A &.J F a.a.F ( ( q._.G %.N ~.2.Y.& d.A R.Y.# n ",
"G.XX& c j.;.k | R d./ S ^ ;XT L $.I F L s.b #X[.# ( s.U +.L & _.",
"A.U.I B C J L G F ( ;XL U ;X( D ^ Y < ^ ;XP Y.] Z >X( F m P x _.",
"d a !.j ( F J / L L ;X^ G a.d.T G Y F ( d.R c m s.s.L F / N q.3.",
"y.i 1.4 ) ^ S R %.D / ( F @.;X( F F J &.s.L n / ;X( S T &.* _.P.",
"= t.<..Xl d.L S &.( D ^ L ^ d.s.I D Y ;X&.F T d.d.L F a.A  .1.-X",
"/ @ Y.P.| _ a.F Y ;XY F J Y s.;X/ S ^ ;XR D ( ;X( n / ;X- D.b.H ",
"A ^ > k.g.Y ;XR S _ ;XT S U a.s.s.L L ( G R ;Xs.G L d.E q.w 9.z ",
"- s.Y : G T s.s.G L ;Xa.G G _ d.;X/ F F J a.;XY S a.;Xc D.B.* ;X",
"o.N d.L G G / ;X( D ( :X/ S ( d.s.a.G D ^ ;X( S R ;X~ X.E.n _ ~ ",
"=X> &.a.J F U s.;XT J ;Xa.F ^ d.&.s.R S $.d.I G &.;XY ] G Q >X; ",
"i.k.k :X( G G @.;X#.F ( d.L Y s.s.d.( F R / S ( ;Xa.J S P ;X! c ",
"8.}.= ) >XY S Y s.d.U L s.Y L a.s.s.s.T G F T s.;X^ D J a.;Xj R.",
"5.8.w.k ;Xs.U F p.;X( D $.^ F a.s.a.d.^ F F ( ;X&.L S / ;X~ < `.",
"7.7.(.& / ;X$.S R ;Xa.G R / F ( s.a.d.$.F Y s.;X( F Y d.;Xz t.3.",
"p e u | m s.s.U L s.d.R L R G ( d.s.s.^ D @.;Xs.R F ( ;X_ & !.1.",
"i w e /.& @.;X^ F ( ;X( F L J ( d.s.a.G U s.s.a.J Y d.d.Q S z.h ",
":.:.r F.> Y ;X( S / ;Xa.J G G / ;X;X/ S ^ d.;X/ F ( ;Xs.z j.y d ",
",.t 0 3. .m s.$.F R ;Xa.U G F / s.s.Y D _ ;Xs.L U s.s.%.*  Xy d ",
"i p 0 w E.; %.s.G T s.>XR G F / ;Xa.J U s.;X( D / ;X;X/ = $Xy u ",
"c.O.-.[ _.= / #.L T a.a.R F J / s.( F Y a.s.^ F @.s.s.Q < *Xh c."
};
